<svg width="42" height="42" viewBox="0 0 42 42" fill="none" xmlns="http://www.w3.org/2000/svg">
<path d="M0.5 6C0.5 2.96243 2.96243 0.5 6 0.5H36C39.0376 0.5 41.5 2.96243 41.5 6V36C41.5 39.0376 39.0376 41.5 36 41.5H6C2.96243 41.5 0.5 39.0376 0.5 36V6Z" stroke="#2563EB"/>
<path fill-rule="evenodd" clip-rule="evenodd" d="M21 13C21.5523 13 22 13.4477 22 14V20H28C28.5523 20 29 20.4477 29 21C29 21.5523 28.5523 22 28 22H22V28C22 28.5523 21.5523 29 21 29C20.4477 29 20 28.5523 20 28V22H14C13.4477 22 13 21.5523 13 21C13 20.4477 13.4477 20 14 20H20V14C20 13.4477 20.4477 13 21 13Z" fill="#2563EB"/>
</svg>
