<svg width="10" height="15" viewBox="0 0 10 15" fill="none" xmlns="http://www.w3.org/2000/svg">
<g clip-path="url(#clip0_8_734)">
<path d="M4.02271 1.88202C4.36451 1.54022 4.91959 1.54022 5.26138 1.88202L8.76139 5.38202C9.01295 5.63358 9.08678 6.00819 8.95006 6.33632C8.81334 6.66444 8.49615 6.87772 8.14068 6.87772H1.14068C0.787948 6.87772 0.468026 6.66444 0.331307 6.33632C0.194589 6.00819 0.271151 5.63358 0.519979 5.38202L4.01998 1.88202H4.02271ZM4.02271 13.6207L0.522714 10.1207C0.271151 9.86913 0.197323 9.49452 0.334042 9.16639C0.47076 8.83827 0.787948 8.62499 1.14342 8.62499H8.14068C8.49342 8.62499 8.81334 8.83827 8.95006 9.16639C9.08678 9.49452 9.01021 9.86913 8.76139 10.1207L5.26138 13.6207C4.91959 13.9625 4.36451 13.9625 4.02271 13.6207Z" fill="#4B5563"/>
</g>
<defs>
<clipPath id="clip0_8_734">
<path d="M0.265625 0.75H9.01562V14.75H0.265625V0.75Z" fill="white"/>
</clipPath>
</defs>
</svg>
