<svg width="17" height="16" viewBox="0 0 17 16" fill="none" xmlns="http://www.w3.org/2000/svg">
<g clip-path="url(#clip0_8_756)">
<path d="M15.7063 0.678137C15.0219 -0.0062378 13.9156 -0.0062378 13.2312 0.678137L12.2906 1.61564L15.35 4.67501L16.2906 3.73439C16.975 3.05001 16.975 1.94376 16.2906 1.25939L15.7063 0.678137ZM6.35625 7.55314C6.16562 7.74376 6.01875 7.97814 5.93437 8.23751L5.00938 11.0125C4.91875 11.2813 4.99063 11.5781 5.19063 11.7813C5.39063 11.9844 5.6875 12.0531 5.95937 11.9625L8.73438 11.0375C8.99062 10.9531 9.225 10.8063 9.41875 10.6156L14.6469 5.38439L11.5844 2.32189L6.35625 7.55314ZM3.96875 2.00001C2.3125 2.00001 0.96875 3.34376 0.96875 5.00001V13C0.96875 14.6563 2.3125 16 3.96875 16H11.9688C13.625 16 14.9688 14.6563 14.9688 13V10C14.9688 9.44689 14.5219 9.00001 13.9688 9.00001C13.4156 9.00001 12.9688 9.44689 12.9688 10V13C12.9688 13.5531 12.5219 14 11.9688 14H3.96875C3.41562 14 2.96875 13.5531 2.96875 13V5.00001C2.96875 4.44689 3.41562 4.00001 3.96875 4.00001H6.96875C7.52188 4.00001 7.96875 3.55314 7.96875 3.00001C7.96875 2.44689 7.52188 2.00001 6.96875 2.00001H3.96875Z" fill="#2563EB"/>
</g>
<defs>
<clipPath id="clip0_8_756">
<path d="M0.96875 0H16.9688V16H0.96875V0Z" fill="white"/>
</clipPath>
</defs>
</svg>
