<svg width="21" height="20" viewBox="0 0 21 20" fill="none" xmlns="http://www.w3.org/2000/svg">
<path d="M11.3333 4.16665C11.3333 3.70641 10.9602 3.33331 10.4999 3.33331C10.0397 3.33331 9.66659 3.70641 9.66659 4.16665V9.16665H4.66659C4.20635 9.16665 3.83325 9.53974 3.83325 9.99998C3.83325 10.4602 4.20635 10.8333 4.66659 10.8333H9.66658V15.8333C9.66658 16.2935 10.0397 16.6666 10.4999 16.6666C10.9602 16.6666 11.3333 16.2935 11.3333 15.8333V10.8333H16.3333C16.7935 10.8333 17.1666 10.4602 17.1666 9.99998C17.1666 9.53974 16.7935 9.16665 16.3333 9.16665H11.3333V4.16665Z" fill="white"/>
</svg>
